<svg xmlns="http://www.w3.org/2000/svg" viewBox="0 18 398.1000061035156 50.5" data-asc="1.13" width="398.1000061035156" height="50.5"><defs/><g fill="#ffffff"><g transform="translate(0, 0)"><path d="M0 56.50L0 54.40L0.95 54.40Q2.40 54.40 3.13 53.65Q3.85 52.90 4.75 50.50L15.85 20.80L19.75 20.80L31.05 51.75Q31.60 53.30 32.38 53.85Q33.15 54.40 34.60 54.40L35.25 54.40L35.25 56.50L21.50 56.50L21.50 54.40L22.65 54.40Q25.65 54.40 25.65 52.00Q25.65 51.60 25.55 51.15Q25.45 50.70 25.25 50.15L23.25 44.55L10.10 44.55L8.20 49.80Q7.75 51.00 7.75 51.95Q7.75 54.40 11.05 54.40L12.20 54.40L12.20 56.50L0 56.50M11.05 42.05L22.35 42.05L19.25 33.30Q18.45 31.10 17.80 29.15Q17.15 27.20 16.75 25.40Q16.40 27.20 15.85 28.85Q15.30 30.50 14.45 32.85L11.05 42.05ZM36.90 56.50L36.90 54.40L37.05 54.40Q38.75 54.40 39.95 53.77Q41.15 53.15 41.15 50.80L41.15 35.20Q41.15 33.00 39.92 32.40Q38.70 31.80 37.05 31.80L36.90 31.80L36.90 29.70L44.60 29.70L45.55 34.65L45.80 34.65Q46.45 33.15 47.20 31.90Q47.95 30.65 49.20 29.92Q50.45 29.20 52.65 29.20Q55.40 29.20 56.73 30.15Q58.05 31.10 58.05 32.85Q58.05 34.40 56.98 35.40Q55.90 36.40 53.40 36.40Q53.40 34.35 52.80 33.42Q52.20 32.50 50.75 32.50Q49.35 32.50 48.40 33.60Q47.45 34.70 46.90 36.40Q46.35 38.10 46.10 39.92Q45.85 41.75 45.85 43.20L45.85 51.05Q45.85 53.25 47.08 53.82Q48.30 54.40 49.95 54.40L51.35 54.40L51.35 56.50L36.90 56.50ZM60.70 66.15Q64.10 66.15 66.27 64.85Q68.45 63.55 69.80 61.32Q71.15 59.10 71.95 56.30L62.70 34.45Q62.05 32.90 61.32 32.35Q60.60 31.80 59.15 31.80L59 31.80L59 29.70L71 29.70L71 31.80L70.85 31.80Q67.85 31.80 67.85 34.20Q67.85 35.05 68.25 36.05L71.90 44.95Q72.40 46.10 72.88 47.47Q73.35 48.85 73.75 50.10Q74.15 51.35 74.30 52.20Q74.65 50.75 75.22 49.20Q75.80 47.65 76.30 46.15L79.65 36.40Q80.10 35.20 80.10 34.25Q80.10 31.80 76.80 31.80L76.65 31.80L76.65 29.70L87.05 29.70L87.05 31.80L86.90 31.80Q85.45 31.80 84.70 32.55Q83.95 33.30 83.10 35.70L75.50 56.70Q74.20 60.35 73 62.65Q71.80 64.95 70.33 66.22Q68.85 67.50 66.65 68Q64.45 68.50 61.15 68.50L60.70 68.50L60.70 66.15ZM97.30 57.00Q93.95 57.00 91.75 55.05Q89.55 53.10 89.55 49.00Q89.55 45.00 92.38 43.10Q95.20 41.20 100.95 41.00L105.10 40.85L105.10 37.85Q105.10 36.05 104.80 34.67Q104.50 33.30 103.50 32.50Q102.50 31.70 100.45 31.70Q98.55 31.70 97.55 32.40Q96.55 33.10 96.22 34.32Q95.90 35.55 95.90 37.15Q93.80 37.15 92.72 36.42Q91.65 35.70 91.65 34.00Q91.65 32.25 92.88 31.20Q94.10 30.15 96.15 29.67Q98.20 29.20 100.65 29.20Q105.25 29.20 107.53 31.15Q109.80 33.10 109.80 37.85L109.80 50.80Q109.80 52.90 110.50 53.65Q111.20 54.40 112.90 54.40L113.05 54.40L113.05 56.50L106.30 56.50L105.50 52.20L105.10 52.20Q104.05 53.60 103.05 54.67Q102.05 55.75 100.72 56.37Q99.40 57.00 97.30 57.00M98.45 53.90Q101.50 53.90 103.30 52.02Q105.10 50.15 105.10 46.95L105.10 42.90L101.90 43.05Q97.65 43.25 96.02 44.77Q94.40 46.30 94.40 49.25Q94.40 53.90 98.45 53.90ZM116.60 56.50L116.60 54.40L117 54.40Q118.70 54.40 119.90 53.77Q121.10 53.15 121.10 50.80L121.10 35.20Q121.10 33.00 119.92 32.40Q118.75 31.80 117.10 31.80L116.85 31.80L116.85 29.70L124.95 29.70L125.60 33.75L125.85 33.75Q127.40 30.95 129.32 30.07Q131.25 29.20 133.65 29.20Q137.60 29.20 139.82 31.52Q142.05 33.85 142.05 39.00L142.05 50.80Q142.05 53.15 143.07 53.77Q144.10 54.40 145.80 54.40L146.05 54.40L146.05 56.50L137.35 56.50L137.35 39.25Q137.35 36.00 136.13 34.20Q134.90 32.40 131.85 32.40Q129.60 32.40 128.28 33.52Q126.95 34.65 126.38 36.50Q125.80 38.35 125.80 40.50L125.80 51.05Q125.80 53.25 126.98 53.82Q128.15 54.40 129.80 54.40L130.05 54.40L130.05 56.50L116.60 56.50ZM151.80 32.55L150.30 20.80L155.60 20.80L154.10 32.55L151.80 32.55ZM168.95 57.00Q165.20 57.00 162.95 55.65Q160.70 54.30 160.70 51.70Q160.70 50.35 161.25 49.60Q161.80 48.85 162.52 48.55Q163.25 48.25 163.85 48.25Q163.85 50.85 165.02 52.72Q166.20 54.60 169.25 54.60Q171.90 54.60 173.32 53.32Q174.75 52.05 174.75 50.05Q174.75 48.80 174.22 48.00Q173.70 47.20 172.38 46.42Q171.05 45.65 168.60 44.60Q166.05 43.45 164.38 42.37Q162.70 41.30 161.88 39.87Q161.05 38.45 161.05 36.30Q161.05 32.90 163.63 31.07Q166.20 29.25 170.45 29.25Q174.05 29.25 175.90 30.60Q177.75 31.95 177.75 33.85Q177.75 35.20 176.82 36.02Q175.90 36.85 174.15 36.85Q174.15 34.35 173.10 32.95Q172.05 31.55 169.85 31.55Q167.30 31.55 166.20 32.67Q165.10 33.80 165.10 35.55Q165.10 37.45 166.52 38.47Q167.95 39.50 171.30 40.85Q173.95 41.95 175.60 43.05Q177.25 44.15 178.02 45.60Q178.80 47.05 178.80 49.15Q178.80 53.05 176.10 55.02Q173.40 57.00 168.95 57.00ZM194.90 56.50L194.90 54.40L195.55 54.40Q197.25 54.40 198.45 53.77Q199.65 53.15 199.65 50.80L199.65 26.30Q199.65 24.10 198.43 23.50Q197.20 22.90 195.55 22.90L194.90 22.90L194.90 20.80L208.95 20.80Q215.25 20.80 218.25 23.57Q221.25 26.35 221.25 31.25Q221.25 34.20 219.97 36.80Q218.70 39.40 215.75 41.00Q212.80 42.60 207.85 42.60L204.70 42.60L204.70 51.05Q204.70 53.25 205.93 53.82Q207.15 54.40 208.80 54.40L210.45 54.40L210.45 56.50L194.90 56.50M207.35 40.25Q211.90 40.25 213.88 38.22Q215.85 36.20 215.85 31.45Q215.85 27.25 214.10 25.22Q212.35 23.20 208.10 23.20L204.70 23.20L204.70 40.25L207.35 40.25ZM237.55 57.00Q232.15 57.00 229.05 53.55Q225.95 50.10 225.95 43.05Q225.95 36.05 228.92 32.62Q231.90 29.20 237.70 29.20Q243.10 29.20 246.20 32.62Q249.30 36.05 249.30 43.05Q249.30 50.10 246.32 53.55Q243.35 57.00 237.55 57.00M237.65 54.40Q241.40 54.40 242.92 51.52Q244.45 48.65 244.45 43.05Q244.45 37.45 242.90 34.65Q241.35 31.85 237.60 31.85Q233.85 31.85 232.32 34.65Q230.80 37.45 230.80 43.05Q230.80 48.65 232.35 51.52Q233.90 54.40 237.65 54.40ZM253.70 56.50L253.70 54.40L253.85 54.40Q255.55 54.40 256.75 53.77Q257.95 53.15 257.95 50.80L257.95 35.20Q257.95 33.00 256.72 32.40Q255.50 31.80 253.85 31.80L253.70 31.80L253.70 29.70L261.40 29.70L262.35 34.65L262.60 34.65Q263.25 33.15 264 31.90Q264.75 30.65 266 29.92Q267.25 29.20 269.45 29.20Q272.20 29.20 273.52 30.15Q274.85 31.10 274.85 32.85Q274.85 34.40 273.77 35.40Q272.70 36.40 270.20 36.40Q270.20 34.35 269.60 33.42Q269 32.50 267.55 32.50Q266.15 32.50 265.20 33.60Q264.25 34.70 263.70 36.40Q263.15 38.10 262.90 39.92Q262.65 41.75 262.65 43.20L262.65 51.05Q262.65 53.25 263.88 53.82Q265.10 54.40 266.75 54.40L268.15 54.40L268.15 56.50L253.70 56.50ZM287.60 57.00Q283.80 57.00 282.07 55.27Q280.35 53.55 280.35 49.25L280.35 32.55L276.55 32.55L276.55 30.55Q277.45 30.55 278.55 30.17Q279.65 29.80 280.45 28.95Q281.30 28.05 281.85 26.75Q282.40 25.45 282.75 23.55L285.05 23.55L285.05 29.70L291.60 29.70L291.60 32.55L285.05 32.55L285.05 49.40Q285.05 51.95 286.10 53.15Q287.15 54.35 288.85 54.35Q289.75 54.35 290.50 54.25Q291.25 54.15 292.05 54.00L292.05 56.20Q291.40 56.50 290.10 56.75Q288.80 57.00 287.60 57.00ZM294.55 56.50L294.55 54.40L295.20 54.40Q296.90 54.40 298.10 53.77Q299.30 53.15 299.30 50.80L299.30 32.05L294.75 32.05L294.75 29.70L299.30 29.70L299.30 27.20Q299.30 22.75 301.68 20.37Q304.05 18.00 308.15 18.00Q312.05 18.00 313.60 18.97Q315.15 19.95 315.15 21.50Q315.15 22.85 314 23.57Q312.85 24.30 311.05 24.30Q311.05 22.80 310.35 21.55Q309.65 20.30 307.75 20.30Q305.60 20.30 304.80 21.95Q304 23.60 304 26.75L304 29.70L311.05 29.70L311.05 32.05L304 32.05L304 50.80Q304 53.15 305.20 53.77Q306.40 54.40 308.10 54.40L310 54.40L310 56.50L294.55 56.50ZM326 57.00Q320.60 57.00 317.50 53.55Q314.40 50.10 314.40 43.05Q314.40 36.05 317.38 32.62Q320.35 29.20 326.15 29.20Q331.55 29.20 334.65 32.62Q337.75 36.05 337.75 43.05Q337.75 50.10 334.77 53.55Q331.80 57.00 326 57.00M326.10 54.40Q329.85 54.40 331.38 51.52Q332.90 48.65 332.90 43.05Q332.90 37.45 331.35 34.65Q329.80 31.85 326.05 31.85Q322.30 31.85 320.77 34.65Q319.25 37.45 319.25 43.05Q319.25 48.65 320.80 51.52Q322.35 54.40 326.10 54.40ZM341.15 56.50L341.15 54.40L341.80 54.40Q343.50 54.40 344.70 53.77Q345.90 53.15 345.90 50.80L345.90 24.00Q345.90 21.80 344.68 21.20Q343.45 20.60 341.80 20.60L341.15 20.60L341.15 18.50L350.60 18.50L350.60 50.80Q350.60 53.15 351.80 53.77Q353 54.40 354.70 54.40L355.35 54.40L355.35 56.50L341.15 56.50ZM364.05 24.70Q362.85 24.70 362.02 24.00Q361.20 23.30 361.20 21.60Q361.20 19.85 362.02 19.17Q362.85 18.50 364.05 18.50Q365.20 18.50 366.05 19.17Q366.90 19.85 366.90 21.60Q366.90 23.30 366.05 24.00Q365.20 24.70 364.05 24.70M357.15 56.50L357.15 54.40L357.80 54.40Q359.45 54.40 360.68 53.82Q361.90 53.25 361.90 51.05L361.90 35.20Q361.90 33.00 360.68 32.40Q359.45 31.80 357.80 31.80L357.65 31.80L357.65 29.70L366.60 29.70L366.60 50.80Q366.60 53.15 367.80 53.77Q369 54.40 370.70 54.40L371.35 54.40L371.35 56.50L357.15 56.50ZM386.35 57.00Q380.95 57.00 377.85 53.55Q374.75 50.10 374.75 43.05Q374.75 36.05 377.73 32.62Q380.70 29.20 386.50 29.20Q391.90 29.20 395 32.62Q398.10 36.05 398.10 43.05Q398.10 50.10 395.13 53.55Q392.15 57.00 386.35 57.00M386.45 54.40Q390.20 54.40 391.73 51.52Q393.25 48.65 393.25 43.05Q393.25 37.45 391.70 34.65Q390.15 31.85 386.40 31.85Q382.65 31.85 381.13 34.65Q379.60 37.45 379.60 43.05Q379.60 48.65 381.15 51.52Q382.70 54.40 386.45 54.40Z"/></g></g></svg>